<svg width="388" height="151" viewBox="0 0 388 151" fill="none" xmlns="http://www.w3.org/2000/svg">
<g filter="url(#filter0_d_4_8)">
<path d="M20.5 142L22.5 15L69.5 103L109.5 18.5L119.5 142H138.5L118 13.5L97.5 10L69.5 82L22.5 1L13 4.5L10 13.5L5.5 142H20.5Z" fill="#531486"/>
<path d="M20.5 142L22.5 15L69.5 103L109.5 18.5L119.5 142H138.5L118 13.5L97.5 10L69.5 82L22.5 1L13 4.5L10 13.5L5.5 142H20.5Z" stroke="#531486"/>
</g>
<path d="M141.092 60.8182H152.482L161.4 78.4695H161.771L170.689 60.8182H182.079L166.652 88.9119V103H156.518V88.9119L141.092 60.8182ZM188.474 103.536C186.456 103.536 184.664 103.199 183.098 102.526C181.547 101.84 180.318 100.81 179.412 99.4368C178.519 98.05 178.073 96.313 178.073 94.2259C178.073 92.4683 178.382 90.9853 179 89.777C179.618 88.5687 180.469 87.5869 181.554 86.8317C182.638 86.0765 183.888 85.5066 185.302 85.1222C186.717 84.724 188.227 84.4562 189.833 84.3189C191.632 84.1541 193.081 83.9825 194.179 83.804C195.278 83.6117 196.074 83.344 196.569 83.0007C197.077 82.6437 197.331 82.1425 197.331 81.4972V81.3942C197.331 80.3369 196.967 79.5199 196.239 78.9432C195.511 78.3665 194.529 78.0781 193.294 78.0781C191.962 78.0781 190.891 78.3665 190.081 78.9432C189.27 79.5199 188.756 80.3163 188.536 81.3324L179.247 81.0028C179.521 79.0805 180.229 77.3641 181.368 75.8537C182.522 74.3295 184.101 73.1349 186.105 72.2699C188.124 71.3911 190.547 70.9517 193.376 70.9517C195.395 70.9517 197.255 71.192 198.958 71.6726C200.66 72.1394 202.143 72.826 203.407 73.7322C204.67 74.6248 205.645 75.7232 206.331 77.0277C207.032 78.3321 207.382 79.822 207.382 81.4972V103H197.907V98.5923H197.66C197.097 99.6634 196.376 100.57 195.498 101.311C194.632 102.053 193.609 102.609 192.429 102.979C191.261 103.35 189.943 103.536 188.474 103.536ZM191.584 96.9446C192.669 96.9446 193.644 96.7249 194.509 96.2855C195.388 95.8461 196.088 95.242 196.61 94.473C197.132 93.6903 197.392 92.7841 197.392 91.7543V88.7472C197.104 88.8982 196.754 89.0355 196.342 89.1591C195.944 89.2827 195.504 89.3994 195.024 89.5092C194.543 89.6191 194.049 89.7152 193.541 89.7976C193.033 89.88 192.545 89.9555 192.078 90.0241C191.131 90.1752 190.321 90.4086 189.648 90.7244C188.989 91.0402 188.481 91.4522 188.124 91.9602C187.781 92.4545 187.609 93.045 187.609 93.7315C187.609 94.7751 187.98 95.5715 188.721 96.1207C189.476 96.67 190.431 96.9446 191.584 96.9446ZM223.612 84.9574V103H213.54V71.3636H223.118V77.1719H223.468C224.168 75.2358 225.363 73.7185 227.051 72.62C228.74 71.5078 230.752 70.9517 233.086 70.9517C235.311 70.9517 237.24 71.4529 238.874 72.4553C240.522 73.4439 241.799 74.8307 242.705 76.6158C243.625 78.3871 244.078 80.4605 244.064 82.8359V103H233.993V84.8132C234.006 83.0556 233.56 81.6825 232.654 80.6939C231.761 79.7053 230.519 79.2109 228.926 79.2109C227.868 79.2109 226.935 79.4444 226.125 79.9112C225.328 80.3643 224.71 81.0166 224.271 81.8679C223.845 82.7192 223.626 83.7491 223.612 84.9574ZM265.068 103.597C261.731 103.597 258.868 102.911 256.479 101.538C254.103 100.165 252.277 98.2559 251 95.8118C249.723 93.3539 249.085 90.5116 249.085 87.2848C249.085 84.0443 249.723 81.2019 251 78.7578C252.291 76.3 254.124 74.3845 256.499 73.0114C258.889 71.6383 261.738 70.9517 265.047 70.9517C267.972 70.9517 270.519 71.4804 272.688 72.5376C274.872 73.5949 276.574 75.0916 277.796 77.0277C279.032 78.95 279.684 81.2088 279.753 83.804H270.34C270.148 82.1837 269.599 80.9136 268.693 79.9936C267.8 79.0736 266.633 78.6136 265.191 78.6136C264.024 78.6136 263.001 78.9432 262.122 79.6023C261.244 80.2476 260.557 81.2088 260.063 82.4858C259.582 83.7491 259.342 85.3144 259.342 87.1818C259.342 89.0492 259.582 90.6283 260.063 91.919C260.557 93.196 261.244 94.1641 262.122 94.8232C263.001 95.4685 264.024 95.7912 265.191 95.7912C266.125 95.7912 266.949 95.5921 267.663 95.1939C268.391 94.7957 268.988 94.2121 269.455 93.4432C269.922 92.6605 270.217 91.7131 270.34 90.6009H279.753C279.657 93.2098 279.005 95.4891 277.796 97.4389C276.602 99.3887 274.92 100.906 272.75 101.991C270.594 103.062 268.034 103.597 265.068 103.597ZM294.979 84.9574V103H284.907V60.8182H294.65V77.1719H295C295.714 75.2221 296.881 73.6979 298.501 72.5994C300.135 71.5009 302.133 70.9517 304.495 70.9517C306.719 70.9517 308.655 71.446 310.303 72.4347C311.951 73.4096 313.228 74.7895 314.134 76.5746C315.054 78.3596 315.507 80.4467 315.493 82.8359V103H305.422V84.8132C305.435 83.0556 304.996 81.6825 304.103 80.6939C303.211 79.7053 301.954 79.2109 300.334 79.2109C299.277 79.2109 298.343 79.4444 297.533 79.9112C296.737 80.3643 296.112 81.0166 295.659 81.8679C295.219 82.7192 294.993 83.7491 294.979 84.9574ZM336.569 103.597C333.26 103.597 330.403 102.945 328.001 101.641C325.611 100.322 323.771 98.4482 322.481 96.0178C321.204 93.5736 320.565 90.6695 320.565 87.3054C320.565 84.0374 321.211 81.1813 322.501 78.7372C323.792 76.2794 325.611 74.3707 327.959 73.0114C330.307 71.6383 333.074 70.9517 336.26 70.9517C338.512 70.9517 340.571 71.3018 342.439 72.0021C344.306 72.7024 345.92 73.7391 347.279 75.1122C348.638 76.4853 349.696 78.1811 350.451 80.1996C351.206 82.2043 351.584 84.5043 351.584 87.0994V89.6122H324.087V83.7628H342.212C342.198 82.6918 341.944 81.7375 341.45 80.8999C340.956 80.0623 340.276 79.41 339.411 78.9432C338.56 78.4626 337.578 78.2223 336.466 78.2223C335.34 78.2223 334.331 78.4763 333.438 78.9844C332.546 79.4787 331.838 80.1584 331.317 81.0234C330.795 81.8748 330.52 82.8428 330.493 83.9276V89.88C330.493 91.1707 330.747 92.3035 331.255 93.2784C331.763 94.2396 332.484 94.9879 333.417 95.5234C334.351 96.0589 335.463 96.3267 336.754 96.3267C337.647 96.3267 338.457 96.2031 339.184 95.956C339.912 95.7088 340.537 95.3449 341.059 94.8643C341.581 94.3838 341.972 93.7933 342.233 93.093L351.481 93.3608C351.096 95.4342 350.252 97.2398 348.947 98.7777C347.657 100.302 345.961 101.49 343.86 102.341C341.759 103.179 339.329 103.597 336.569 103.597ZM386.567 71.3636L375.713 103H364.178L353.345 71.3636H363.952L369.781 93.1548H370.11L375.96 71.3636H386.567Z" fill="#531486"/>
<defs>
<filter id="filter0_d_4_8" x="0.982178" y="0.385498" width="142.104" height="150.115" filterUnits="userSpaceOnUse" color-interpolation-filters="sRGB">
<feFlood flood-opacity="0" result="BackgroundImageFix"/>
<feColorMatrix in="SourceAlpha" type="matrix" values="0 0 0 0 0 0 0 0 0 0 0 0 0 0 0 0 0 0 127 0" result="hardAlpha"/>
<feOffset dy="4"/>
<feGaussianBlur stdDeviation="2"/>
<feComposite in2="hardAlpha" operator="out"/>
<feColorMatrix type="matrix" values="0 0 0 0 0 0 0 0 0 0 0 0 0 0 0 0 0 0 0.25 0"/>
<feBlend mode="normal" in2="BackgroundImageFix" result="effect1_dropShadow_4_8"/>
<feBlend mode="normal" in="SourceGraphic" in2="effect1_dropShadow_4_8" result="shape"/>
</filter>
</defs>
</svg>
